<?xml version="1.0" encoding="UTF-8"?>
<svg width="140px" height="140px" viewBox="0 0 140 140" version="1.1" xmlns="http://www.w3.org/2000/svg" xmlns:xlink="http://www.w3.org/1999/xlink">
    <!-- Generator: Sketch 50.2 (55047) - http://www.bohemiancoding.com/sketch -->
    <title>计算机视觉</title>
    <desc>Created with Sketch.</desc>
    <defs></defs>
    <g id="Symbols" stroke="none" stroke-width="1" fill="none" fill-rule="evenodd">
        <g id="计算机视觉">
            <g id="Group-7">
                <g transform="translate(28.000000, 28.000000)">
                    <path d="M3.19230769,21.2753351 L3.19230769,8.77884615 C3.19230769,5.69348616 5.69348616,3.19230769 8.77884615,3.19230769 L21.3020114,3.19230769 C21.8538021,3.19230769 22.3013124,2.74536323 22.3020106,2.19357299 L22.3035192,1.0012653 C22.304218,0.448980989 21.8570696,0.000699604557 21.3047853,8.00488185e-07 C21.3043636,2.66829449e-07 21.3039418,2.21967128e-16 21.30352,2.22044605e-16 L8.77884615,0 C3.9304233,0 0,3.9304233 0,8.77884615 L0,21.2738284 C6.75749461e-17,21.8256197 0.446945433,22.2731303 0.998736302,22.2738276 L2.19104399,22.2753343 C2.7433283,22.2760322 3.19160897,21.8288831 3.19230689,21.2765988 C3.19230743,21.2761776 3.19230769,21.2757563 3.19230769,21.2753351 Z" id="Rectangle-8" fill="#e42743" fill-rule="nonzero"></path>
                    <path d="M3.19230769,81.9291813 L3.19230769,69.4326923 C3.19230769,66.3473323 5.69348616,63.8461538 8.77884615,63.8461538 L21.3020114,63.8461538 C21.8538021,63.8461538 22.3013124,63.3992094 22.3020106,62.8474191 L22.3035192,61.6551115 C22.304218,61.1028271 21.8570696,60.6545458 21.3047853,60.653847 C21.3043636,60.6538464 21.3039418,60.6538462 21.30352,60.6538462 L8.77884615,60.6538462 C3.9304233,60.6538462 0,64.5842695 0,69.4326923 L0,81.9276745 C6.75749461e-17,82.4794658 0.446945433,82.9269764 0.998736302,82.9276737 L2.19104399,82.9291805 C2.7433283,82.9298784 3.19160897,82.4827293 3.19230689,81.9304449 C3.19230743,81.9300237 3.19230769,81.9296025 3.19230769,81.9291813 Z" id="Rectangle-8-Copy-4" fill="#e42743" fill-rule="nonzero" transform="translate(11.152393, 71.792146) scale(1, -1) translate(-11.152393, -71.792146) "></path>
                    <path d="M63.8461538,21.2753351 L63.8461538,8.77884615 C63.8461538,5.69348616 66.3473323,3.19230769 69.4326923,3.19230769 L81.9558576,3.19230769 C82.5076482,3.19230769 82.9551586,2.74536323 82.9558568,2.19357299 L82.9573654,1.0012653 C82.9580642,0.448980989 82.5109158,0.000699604557 81.9586315,8.00488185e-07 C81.9582097,2.66829448e-07 81.9577879,1.42093564e-18 81.9573662,0 L69.4326923,0 C64.5842695,0 60.6538462,3.9304233 60.6538462,8.77884615 L60.6538462,21.2738284 C60.6538462,21.8256197 61.1007916,22.2731303 61.6525825,22.2738276 L62.8448901,22.2753343 C63.3971745,22.2760322 63.8454551,21.8288831 63.846153,21.2765988 C63.8461536,21.2761776 63.8461538,21.2757563 63.8461538,21.2753351 Z" id="Rectangle-8" fill="#e42743" fill-rule="nonzero" transform="translate(71.806239, 11.138300) scale(-1, 1) translate(-71.806239, -11.138300) "></path>
                    <path d="M63.8461538,81.9291813 L63.8461538,69.4326923 C63.8461538,66.3473323 66.3473323,63.8461538 69.4326923,63.8461538 L81.9558576,63.8461538 C82.5076482,63.8461538 82.9551586,63.3992094 82.9558568,62.8474191 L82.9573654,61.6551115 C82.9580642,61.1028271 82.5109158,60.6545458 81.9586315,60.653847 C81.9582097,60.6538464 81.9577879,60.6538462 81.9573662,60.6538462 L69.4326923,60.6538462 C64.5842695,60.6538462 60.6538462,64.5842695 60.6538462,69.4326923 L60.6538462,81.9276745 C60.6538462,82.4794658 61.1007916,82.9269764 61.6525825,82.9276737 L62.8448901,82.9291805 C63.3971745,82.9298784 63.8454551,82.4827293 63.846153,81.9304449 C63.8461536,81.9300237 63.8461538,81.9296025 63.8461538,81.9291813 Z" id="Rectangle-8-Copy-5" fill="#e42743" fill-rule="nonzero" transform="translate(71.806239, 71.792146) scale(-1, -1) translate(-71.806239, -71.792146) "></path>
                    <circle id="Oval-7" stroke="#e42743" stroke-width="3.2" cx="40.7019231" cy="27.1346154" r="7.17884615"></circle>
                    <path d="M30.7259615,41.0873241 L19.3484698,63.8423077 L42.1034533,63.8423077 L30.7259615,41.0873241 Z" id="Triangle" stroke="#e42743" stroke-width="3.2"></path>
                    <rect id="Rectangle-7" stroke="#e42743" stroke-width="3.2" transform="translate(53.200010, 49.209626) rotate(-360.000000) translate(-53.200010, -49.209626) " x="46.8192412" y="42.8288566" width="12.7615385" height="12.7615385"></rect>
                </g>
            </g>
        </g>
    </g>
</svg>