<?xml version="1.0" encoding="UTF-8"?>
<svg width="140px" height="140px" viewBox="0 0 140 140" version="1.1" xmlns="http://www.w3.org/2000/svg" xmlns:xlink="http://www.w3.org/1999/xlink">
    <!-- Generator: Sketch 50.2 (55047) - http://www.bohemiancoding.com/sketch -->
    <title>机器学习</title>
    <desc>Created with Sketch.</desc>
    <defs></defs>
    <g id="Symbols" stroke="none" stroke-width="1" fill="none" fill-rule="evenodd">
        <g id="机器学习">
            <g id="Group-6">
                <g transform="translate(25.000000, 33.000000)">
                    <ellipse id="Oval-7-Copy-2" stroke="#e42743" stroke-width="3.2" cx="8.78070175" cy="65.1521739" rx="7.18070175" ry="7.24782609"></ellipse>
                    <g id="Group-4" transform="translate(39.324561, 56.304348)">
                        <ellipse id="Oval-7-Copy-3" stroke="#e42743" stroke-width="3.2" cx="8.78070175" cy="8.84782609" rx="7.18070175" ry="7.24782609"></ellipse>
                        <ellipse id="Oval-7-Copy-4" stroke="#e42743" stroke-width="3.2" cx="41.5087719" cy="8.84782609" rx="7.18070175" ry="7.24782609"></ellipse>
                        <rect id="Rectangle-11" fill="#e42743" x="15.9649123" y="7.23913043" width="19.9561404" height="3.2173913"></rect>
                    </g>
                    <g id="Group-4-Copy" transform="translate(7.184211, 4.021739)">
                        <ellipse id="Oval-7-Copy-3" stroke="#e42743" stroke-width="3.2" cx="8.78070175" cy="8.84782609" rx="7.18070175" ry="7.24782609"></ellipse>
                        <ellipse id="Oval-7-Copy-4" stroke="#e42743" stroke-width="3.2" cx="41.5087719" cy="8.84782609" rx="7.18070175" ry="7.24782609"></ellipse>
                        <rect id="Rectangle-11" fill="#e42743" x="15.9649123" y="7.23913043" width="19.9561404" height="3.2173913"></rect>
                    </g>
                    <path d="M82.7189941,5.4429409 L87.9030994,0.258835672 C88.2155188,-0.0535837616 88.7220508,-0.0535837616 89.0344702,0.258835672 L90.1856968,1.41006221 C90.4981162,1.72248165 90.4981162,2.22901363 90.1856968,2.54143306 L84.4305677,8.29656208 C84.3877553,8.33937453 84.3412977,8.37632017 84.2921939,8.407399 L83.2709111,9.4286818 C82.9584917,9.74110124 82.4519597,9.74110124 82.1395403,9.4286818 L75.2614705,2.55061203 C74.9490511,2.2381926 74.9490511,1.73166062 75.2614705,1.41924118 L76.412697,0.268014642 C76.7251165,-0.0444047914 77.2316484,-0.0444047914 77.5440679,0.268014642 L82.7189941,5.4429409 Z" id="Combined-Shape-Copy" fill="#e42743" transform="translate(82.723584, 4.845905) scale(-1, -1) translate(-82.723584, -4.845905) "></path>
                    <path d="M65.4561404,38.5385949 L65.4561404,12.8695652 C65.4561404,9.75996195 67.9578475,7.23913043 71.0438596,7.23913043 L84.5686185,7.23913043 L84.5726586,4.02173913 L71.0438596,4.02173913 C66.194412,4.02173913 62.2631579,7.9830458 62.2631579,12.8695652 L62.2631579,38.5345291 L65.4561404,38.5385949 Z" id="Rectangle-8-Copy-6" fill="#e42743" fill-rule="nonzero" transform="translate(73.417908, 21.280167) scale(-1, -1) translate(-73.417908, -21.280167) "></path>
                    <path d="M10.377193,57.8429427 L10.377193,44.2391304 C10.377193,41.1295272 12.8789001,38.6086957 15.9649123,38.6086957 L67.1114574,38.6086957 L67.1154975,35.3913043 L15.9649123,35.3913043 C11.1154646,35.3913043 7.18421053,39.352611 7.18421053,44.2391304 L7.18421053,57.8388769 L10.377193,57.8429427 Z" id="Rectangle-8-Copy-6" fill="#e42743" fill-rule="nonzero"></path>
                </g>
            </g>
        </g>
    </g>
</svg>