<?xml version="1.0" encoding="UTF-8"?>
<svg width="140px" height="140px" viewBox="0 0 140 140" version="1.1" xmlns="http://www.w3.org/2000/svg" xmlns:xlink="http://www.w3.org/1999/xlink">
    <!-- Generator: Sketch 50.2 (55047) - http://www.bohemiancoding.com/sketch -->
    <title>自然语言处理</title>
    <desc>Created with Sketch.</desc>
    <defs></defs>
    <g id="Symbols" stroke="none" stroke-width="1" fill="none" fill-rule="evenodd">
        <g id="自然语言处理">
            <g id="Group-8">
                <g transform="translate(25.000000, 29.000000)">
                    <path d="M36.8407401,5.66792683 C36.6061647,5.63291415 36.3693169,5.61533559 36.1321429,5.61533559 C33.4811761,5.61533559 31.3321429,7.76436879 31.3321429,10.4153356 L31.3321429,51.5039894 C31.3321429,53.8812904 33.0722916,55.9004505 35.4235456,56.2513981 L67.6235456,61.0575634 C67.858121,61.092576 68.0949689,61.1101546 68.3321429,61.1101546 C70.9831097,61.1101546 73.1321429,58.9611214 73.1321429,56.3101546 L73.1321429,15.2215008 C73.1321429,12.8441998 71.3919941,10.8250397 69.0407401,10.4740921 L36.8407401,5.66792683 Z" id="Rectangle-20" stroke="#e42743" stroke-width="3.2" fill="#FFFFFF"></path>
                    <path d="M30.4121687,11.2953778 C30.1775933,11.2603651 29.9407454,11.2427866 29.7035714,11.2427866 C27.0526046,11.2427866 24.9035714,13.3918198 24.9035714,16.0427866 L24.9035714,57.1314404 C24.9035714,59.5087413 26.6437201,61.5279014 28.9949742,61.8788491 L61.1949742,66.6850143 C61.4295496,66.720027 61.6663974,66.7376056 61.9035714,66.7376056 C64.5545382,66.7376056 66.7035714,64.5885724 66.7035714,61.9376056 L66.7035714,20.8489518 C66.7035714,18.4716508 64.9634227,16.4524907 62.6121687,16.101543 L30.4121687,11.2953778 Z" id="Rectangle-20" stroke="#e42743" stroke-width="3.2" fill="#FFFFFF"></path>
                    <path d="M22.3764544,19.3345935 C22.141879,19.2995808 21.9050311,19.2820023 21.6678571,19.2820023 C19.0168903,19.2820023 16.8678571,21.4310355 16.8678571,24.0820023 L16.8678571,65.170656 C16.8678571,67.547957 18.6080059,69.5671171 20.9592599,69.9180648 L53.1592599,74.72423 C53.3938353,74.7592427 53.6306831,74.7768213 53.8678571,74.7768213 C56.5188239,74.7768213 58.6678571,72.6277881 58.6678571,69.9768213 L58.6678571,28.8881675 C58.6678571,26.5108665 56.9277084,24.4917064 54.5764544,24.1407587 L22.3764544,19.3345935 Z" id="Rectangle-20" stroke="#e42743" stroke-width="3.2" fill="#FFFFFF"></path>
                    <path d="M40.6469106,49.8431373 L40.6469106,48.0784314 L39.0693471,48.0784314 C36.8607581,48.0784314 34.8888037,48.0392157 34.8888037,49.7647059 C34.8888037,51.4901961 35.48039,51.6862745 37.0185145,51.6862745 C38.596078,51.6862745 39.8186897,50.7843137 40.6469106,49.8431373 Z M40.6469106,54.2745098 L40.6469106,52.5882353 C40.1342025,54.1176471 38.2805653,54.6666667 37.0579535,54.6666667 C32.9957274,54.6666667 31.3392857,53.3333333 31.3392857,49.4509804 C31.3392857,45.6862745 34.573291,44.9019608 36.7818799,44.9019608 C38.3200044,44.9019608 39.029908,44.9803922 40.2919588,45.4901961 L40.6469106,45.4901961 L40.6469106,44.4705882 C40.6469106,42.5490196 38.9904689,41.8823529 37.0973926,41.8823529 C35.8747809,41.8823529 34.7310473,42.1176471 33.3506792,42.5490196 C32.7590929,41.5686275 32.5224584,40.7058824 32.5224584,39.4117647 C34.0605828,38.9019608 35.9536591,38.5882353 37.4129053,38.5882353 C41.4751315,38.5882353 44.1964286,39.9607843 44.1964286,44.5098039 L44.1964286,54.2745098 C43.2893295,54.4705882 42.7371823,54.4705882 42.4216696,54.4705882 C42.1061569,54.4705882 41.4751315,54.4705882 40.6469106,54.2745098 Z" id="a" fill="#e42743"></path>
                    <path d="M7.66650624,42.4442318 L8.93999213,41.1707459 C9.25241156,40.8583264 9.75894355,40.8583264 10.071363,41.1707459 L11.2213799,42.3207628 C11.5337993,42.6331822 11.5337993,43.1397142 11.2213799,43.4521336 L7.83101911,46.8424944 C7.79915908,46.8743544 7.76528035,46.9029654 7.72979466,46.9283274 L6.68006427,47.9780578 C6.36764483,48.2904772 5.86111285,48.2904772 5.54869342,47.9780578 L1.02789975,43.4572641 C0.715480318,43.1448447 0.715480318,42.6383127 1.02789975,42.3258932 L2.17791665,41.1758764 C2.49033608,40.8634569 2.99686807,40.8634569 3.3092875,41.1758764 L4.46915916,42.335748 L4.46915916,15.5078405 C4.46915916,15.2755848 4.5700945,15.0547938 4.74573952,14.9028348 L21.7433552,0.197376541 C22.0774907,-0.0917001431 22.5827039,-0.0551728245 22.8717806,0.27896259 C22.8733386,0.280763496 22.8748886,0.282571349 22.8764305,0.284386096 L23.921515,1.51439849 C24.2057916,1.84897786 24.1673065,2.35014731 23.835279,2.63740031 L7.9430866,16.3865035 C7.76744159,16.5384624 7.66650624,16.7592534 7.66650624,16.9915091 L7.66650624,42.4442318 Z" id="Combined-Shape" fill="#e42743"></path>
                    <path d="M72.7607542,76.2284974 L74.0342401,74.9550115 C74.3466595,74.6425921 74.8531915,74.6425921 75.165611,74.9550115 L76.3156279,76.1050284 C76.6280473,76.4174479 76.6280473,76.9239799 76.3156279,77.2363993 L72.9252671,80.6267601 C72.8934071,80.6586201 72.8595283,80.6872311 72.8240426,80.7125931 L71.7743123,81.7623235 C71.4618928,82.0747429 70.9553608,82.0747429 70.6429414,81.7623235 L66.1221477,77.2415298 C65.8097283,76.9291103 65.8097283,76.4225784 66.1221477,76.1101589 L67.2721646,74.960142 C67.5845841,74.6477226 68.091116,74.6477226 68.4035355,74.960142 L69.5634071,76.1200137 L69.5634071,49.2921061 C69.5634071,49.0598505 69.6643425,48.8390594 69.8399875,48.6871005 L86.8376032,33.9816422 C87.1717386,33.6925655 87.6769519,33.7290929 87.9660286,34.0632283 C87.9675866,34.0650292 87.9691366,34.066837 87.9706785,34.0686518 L89.015763,35.2986642 C89.3000396,35.6332435 89.2615545,36.134413 88.929527,36.421666 L73.0373346,50.1707691 C72.8616896,50.3227281 72.7607542,50.5435191 72.7607542,50.7757748 L72.7607542,76.2284974 Z" id="Combined-Shape-Copy" fill="#e42743" transform="translate(77.547124, 57.892133) scale(-1, -1) translate(-77.547124, -57.892133) "></path>
                </g>
            </g>
        </g>
    </g>
</svg>