<?xml version="1.0" encoding="UTF-8"?>
<svg width="140px" height="140px" viewBox="0 0 140 140" version="1.1" xmlns="http://www.w3.org/2000/svg" xmlns:xlink="http://www.w3.org/1999/xlink">
    <!-- Generator: Sketch 50.2 (55047) - http://www.bohemiancoding.com/sketch -->
    <title>语音识别</title>
    <desc>Created with Sketch.</desc>
    <defs></defs>
    <g id="Symbols" stroke="none" stroke-width="1" fill="none" fill-rule="evenodd">
        <g id="语音识别">
            <g id="Group-10">
                <g transform="translate(20.000000, 25.000000)">
                    <g id="Group-5" transform="translate(39.120968, 45.000000) rotate(-330.000000) translate(-39.120968, -45.000000) translate(15.967742, 7.168142)">
                        <path d="M23.1532258,1.6 C16.1000151,1.6 10.3822581,7.31775702 10.3822581,14.3709677 L10.3822581,34.2131031 C10.3822581,41.2663138 16.1000151,46.9840708 23.1532258,46.9840708 C30.2064365,46.9840708 35.9241935,41.2663138 35.9241935,34.2131031 L35.9241935,14.3709677 C35.9241935,7.31775702 30.2064365,1.6 23.1532258,1.6 Z" id="Rectangle-2" stroke="#e42743" stroke-width="3.2" fill=""></path>
                        <path d="M43.9066438,26.2956923 L45.5001922,26.2832235 C45.9420064,26.2797665 46.3029701,26.6351252 46.3064271,27.0769395 C46.3064435,27.079026 46.3064516,27.0811125 46.3064516,27.083199 L46.3064516,32.974716 C46.3064516,47.0506459 37.2632104,58.4614417 23.1532258,58.4614417 C9.04324123,58.4614417 0,47.0506459 0,32.974716 L2.22044605e-16,27.4767243 C1.67936305e-16,27.0348965 0.3581722,26.6767243 0.8,26.6767243 L2.39354839,26.6767243 C2.83537619,26.6767243 3.19354839,27.0348965 3.19354839,27.4767243 L3.19354839,32.974716 C3.19354839,45.2911547 10.8069893,55.275601 23.1532258,55.275601 C35.4994623,55.275601 43.1129032,45.2911547 43.1129032,32.974716 L43.1129032,27.0956678 C43.1129032,26.6562825 43.4672719,26.2991302 43.9066438,26.2956923 Z" id="Rectangle-18" fill="#e42743" fill-rule="nonzero"></path>
                        <path d="M21.5564516,56.5486726 L24.75,56.5486726 L24.75,74.8637168 C24.75,75.3055446 24.3918278,75.6637168 23.95,75.6637168 L22.3564516,75.6637168 C21.9146238,75.6637168 21.5564516,75.3055446 21.5564516,74.8637168 L21.5564516,56.5486726 Z" id="Rectangle-19" fill="#e42743"></path>
                    </g>
                    <path d="M62.0766667,35.098514 L60.8277102,36.0985678 L58.8276026,33.6006548 L60.0765591,32.600601 C66.3368702,27.587898 73.9141279,25.0814159 82.7463693,25.0814159 C91.5839118,25.0814159 99.0920391,27.591277 105.205157,32.6132428 L106.441471,33.6288833 L104.41019,36.1015129 L103.173876,35.0858723 C97.6528523,30.5503159 90.8655484,28.2814159 82.7463693,28.2814159 C74.6218893,28.2814159 67.7526426,30.5536949 62.0766667,35.098514 Z" id="Line-3-Copy-3" fill="#e42743" fill-rule="nonzero" transform="translate(82.634537, 30.591464) rotate(-270.000000) translate(-82.634537, -30.591464) "></path>
                    <path d="M78.2489612,34.0373687 L76.8664598,34.8427815 L75.2556341,32.0777787 L76.6381356,31.2723658 C82.3564627,27.9410028 88.7934819,26.2761062 95.9197564,26.2761062 C103.051112,26.2761062 109.418893,27.9435461 114.991668,31.2823508 L116.364184,32.1046637 L114.719558,34.8496967 L113.347042,34.0273837 C108.28489,30.994507 102.486273,29.4761062 95.9197564,29.4761062 C89.3481595,29.4761062 83.4677066,30.9970503 78.2489612,34.0373687 Z" id="Line-3-Copy-4" fill="#e42743" fill-rule="nonzero" transform="translate(95.809909, 30.562901) rotate(-270.000000) translate(-95.809909, -30.562901) "></path>
                </g>
            </g>
        </g>
    </g>
</svg>